# xmcd
#
# Track frame offsets: 
#        150
#        21642
#        39676
#        60992
#        76716
#        100234
#        114951
#        129672
#        153196
#        170188
#        189554
#        208133
#        223557
#
# Disc length: 3216 seconds
#
# Revision: 0
# Processed by: cddbd v1.5.2PL0 Copyright (c) Steve Scherf et al.
# Submitted via: ExactAudioCopy v1.3
#
DISCID=b20c8e0d
DTITLE=The Black Sorrows - One More Time (Bonus CD)
DYEAR=2015
DGENRE=Blues Rock
TTITLE0=Lucky Charm
TTITLE1=Lovers' Story
TTITLE2=Hold on to Me
TTITLE3=Life's Sad Parade
TTITLE4=The Chosen Ones
TTITLE5=Snake Skin Shoes
TTITLE6=Country Girls
TTITLE7=Ain't Love the Strangest Thing
TTITLE8=Harley and Rose
TTITLE9=Dear Children
TTITLE10=Little Murders
TTITLE11=Daughters of Glory
TTITLE12=A Fool and the Moon
EXTD=
EXTT0=
EXTT1=
EXTT2=
EXTT3=
EXTT4=
EXTT5=
EXTT6=
EXTT7=
EXTT8=
EXTT9=
EXTT10=
EXTT11=
EXTT12=
PLAYORDER=
